<?xml version="1.0" encoding="UTF-8"?>
<svg xmlns="http://www.w3.org/2000/svg" viewBox="0 0 24 24" fill="#ffffff">
    <path d="M12 0C5.373 0 0 5.373 0 12c0 5.302 3.438 9.8 8.207 11.387.599.111.793-.26.793-.577v-2.04c-3.338.726-4.042-1.416-4.042-1.416-.546-1.387-1.333-1.757-1.333-1.757-1.089-.745.082-.729.082-.729 1.205.084 1.839 1.238 1.839 1.238 1.07 1.835 2.809 1.305 3.494.998.107-.775.419-1.305.762-1.605-2.665-.303-5.466-1.333-5.466-5.93 0-1.31.469-2.381 1.236-3.221-.124-.303-.536-1.524.117-3.176 0 0 1.007-.323 3.3 1.23.957-.266 1.983-.399 3.003-.404 1.02.005 2.046.138 3.004.404 2.291-1.554 3.296-1.23 3.296-1.23.655 1.653.243 2.873.119 3.176.77.84 1.236 1.911 1.236 3.221 0 4.608-2.805 5.623-5.475 5.92.43.371.815 1.102.815 2.222v3.293c0 .32.193.694.801.575C20.565 21.798 24 17.302 24 12 24 5.373 18.627 0 12 0z"/>
</svg>